<?xml version="1.0" encoding="utf-8"?>
<!-- Generator: Adobe Illustrator 16.0.0, SVG Export Plug-In . SVG Version: 6.00 Build 0)  -->
<!DOCTYPE svg PUBLIC "-//W3C//DTD SVG 1.1//EN" "http://www.w3.org/Graphics/SVG/1.1/DTD/svg11.dtd">
<svg version="1.1" id="Layer_1" xmlns="http://www.w3.org/2000/svg" xmlns:xlink="http://www.w3.org/1999/xlink" x="0px" y="0px"
	 width="50px" height="50px" viewBox="0 0 50 50" enable-background="new 0 0 50 50" xml:space="preserve">
<path id="path137" fill="#FFFFFF" d="M22.657,19.88c-0.169,4.325-2.557,7.917-1.743,12.196c0.591,3.109,5.736,7.449,1.743,8.712
	c-1.487-4.565-3.668-7.732-6.099-10.164c-2.284-2.284-6.278-1.909-8.421-4.938c3.03-0.9,5.908,2.806,9.293,3.486
	c-1.033-2.424-7.324-10.653-5.228-11.616c3.213-1.478,5.302,9.092,6.97,11.035C19.943,25.399,18.875,18.18,22.657,19.88"/>
<path id="path143" fill="#FFFFFF" d="M43.565,18.134c-2.061,1.632-5.458,4.198-6.971,6.388c-1.262,1.828-2.528,11.76-3.484,11.616
	c-3.061-0.46,0.663-9.021,0-11.616c-0.829-3.246-4.501-5.665-5.228-9.293c3.055,0.18,3.792,5.533,5.809,7.551
	c0.229-0.847,0.636-15.709,3.484-11.615c1.683,2.416-1.55,9.456-1.742,12.196C38.226,21.783,41.686,14.025,43.565,18.134"/>
</svg>
